<?xml version="1.0" standalone="no"?><!DOCTYPE svg PUBLIC "-//W3C//DTD SVG 1.1//EN" "http://www.w3.org/Graphics/SVG/1.1/DTD/svg11.dtd"><svg t="1545272859289" class="icon" style=""  viewBox="0 0 1024 1024" version="1.1" xmlns="http://www.w3.org/2000/svg" p-id="2471" xmlns:xlink="http://www.w3.org/1999/xlink" width="40" height="12.677189724543485"><defs><style type="text/css"></style></defs>
<path d="M287.744 754.688s62.464 66.56 142.336 80.896c0 0 65.536 18.432 129.024-32.768 30.72-23.552 97.28-86.016 152.576-139.264 51.2-49.152 92.16-91.136 92.16-91.136l-60.416-58.368s-14.336-10.24-29.696 5.12c0 0-58.368 57.344-108.544 102.4-47.104 43.008-94.208 87.04-111.616 99.328 0 0-76.8 77.824-173.056 2.048 0 0-132.096-103.424-262.144-280.576l-4.096 20.48s-5.12 17.408 6.144 33.792c1.024 0 102.4 150.528 227.328 258.048z" fill="#fff"/>
<path d="M846.848 640c-12.288 11.264-177.152 171.008-239.616 214.016-35.84 28.672-74.752 43.008-117.76 47.104-31.744 4.096-66.56-4.096-103.424-18.432-39.936-18.432-101.376-68.608-158.72-126.976-40.96-41.984-80.896-89.088-114.688-133.12-22.528-30.72-45.056-61.44-61.44-88.064 0 0 0 36.864 16.384 68.608 0 0 67.584 128 197.632 247.808 12.288 14.336 124.928 125.952 232.448 122.88 0 0 101.376 7.168 193.536-68.608 15.36-14.336 177.152-153.6 227.328-207.872l-53.248-58.368c0-2.048-6.144-10.24-18.432 1.024zM736.256 269.312s-62.464-66.56-142.336-82.944c0 0-65.536-15.36-128 33.792-30.72 24.576-97.28 86.016-152.576 139.264-51.2 49.152-92.16 91.136-92.16 91.136l60.416 58.368s14.336 10.24 29.696-5.12c0 0 58.368-57.344 107.52-102.4 47.104-43.008 94.208-87.04 111.616-99.328 0 0 76.8-78.848 173.056-2.048 0 0 132.096 103.424 262.144 280.576l4.096-20.48s5.12-17.408-7.168-33.792c1.024 1.024-101.376-148.48-226.304-257.024z" fill="#fff"/>
<path d="M177.152 385.024c12.288-11.264 177.152-169.984 239.616-215.04 35.84-25.6 74.752-41.984 116.736-45.056 32.768-3.072 66.56 2.048 103.424 17.408 39.936 18.432 101.376 67.584 158.72 126.976 39.936 41.984 80.896 88.064 114.688 133.12 22.528 30.72 45.056 61.44 61.44 88.064 0 0 0-36.864-16.384-68.608 0 0-67.584-128-197.632-248.832-13.312-11.264-124.928-123.904-233.472-120.832 0 0-101.376-6.144-193.536 69.632-15.36 12.288-177.152 151.552-227.328 206.848l53.248 58.368c2.048 0 8.192 8.192 20.48-2.048z" fill="#fff"/>
<path d="M950.272 620.544c-83.968-113.664-235.52-249.856-235.52-249.856-72.704-63.488-137.216 1.024-137.216 1.024l-214.016 194.56c-41.984 37.888-80.896 4.096-80.896 4.096-102.4-81.92-196.608-204.8-196.608-204.8s-7.168 17.408-12.288 26.624c-4.096 8.192 1.024 12.288 1.024 12.288 50.176 75.776 178.176 196.608 226.304 240.64 62.464 56.32 106.496 34.816 133.12 15.36s194.56-173.056 229.376-205.824c35.84-32.768 76.8-2.048 76.8-2.048 105.472 87.04 197.632 205.824 197.632 205.824s8.192-19.456 12.288-27.648c5.12-6.144 0-10.24 0-10.24z" fill="#fff"/>
</svg>
